<svg height="384pt" viewBox="-16 0 384 384" width="384pt" xmlns="http://www.w3.org/2000/svg"><path d="m144 64v-64h-96v130.023438c-27.574219 7.128906-48 32.207031-48 61.976562v192h192v-192c0-29.769531-20.425781-54.847656-48-61.976562zm-64-32h32v32h-32zm-48 192h128v64h-128zm0 128v-32h128v32zm96-192c17.648438 0 32 14.351562 32 32h-128c0-17.648438 14.351562-32 32-32h16v-64h32v64zm0 0"/><path d="m352 240v-80h-112v80c0 25.3125 16.894531 46.734375 40 53.640625v58.359375h-32v32h96v-32h-32v-58.359375c23.105469-6.90625 40-28.328125 40-53.640625zm-80 0v-48h48v48c0 13.230469-10.769531 24-24 24s-24-10.769531-24-24zm0 0"/></svg>