<svg height="384pt" viewBox="0 0 384 384" width="384pt" xmlns="http://www.w3.org/2000/svg"><path d="m64 245.039062v138.960938h256l-.023438-138.953125c37.785157-18.015625 64.023438-56.472656 64.023438-101.046875 0-61.761719-50.238281-112-112-112-.566406 0-1.121094.0625-1.6875.070312-20.207031-19.804687-47.839844-32.070312-78.3125-32.070312-30.464844 0-58.097656 12.265625-78.3125 32.070312-.566406-.007812-1.121094-.070312-1.6875-.070312-61.761719 0-112 50.238281-112 112 0 44.566406 26.222656 83.015625 64 101.039062zm32 106.960938v-32h191.992188l.007812 32zm-6.640625-284.6875c-5.984375 13.703125-9.359375 28.800781-9.359375 44.6875 0 61.761719 50.238281 112 112 112v-32c-44.113281 0-80-35.886719-80-80s35.886719-80 80-80 80 35.886719 80 80h32c0-15.886719-3.375-30.984375-9.359375-44.6875 33.113281 9.792969 57.359375 40.441406 57.359375 76.6875 0 44.113281-35.886719 80-80 80h-16v32h16c5.441406 0 10.742188-.519531 15.984375-1.273438v33.273438h-191.984375v-33.28125c5.238281.753906 10.550781 1.28125 16 1.28125h16v-32h-16c-44.113281 0-80-35.886719-80-80 0-36.246094 24.246094-66.894531 57.359375-76.6875zm0 0"/></svg>