<svg height="384pt" viewBox="-16 0 384 384" width="384pt" xmlns="http://www.w3.org/2000/svg"><path d="m97.34375 129.34375c-31.929688 5.9375-57.199219 30.921875-63.679688 62.65625h-33.664062v80c0 26.472656 21.527344 48 48 48h34.800781c-1.777343 5.015625-2.800781 10.382812-2.800781 16v16h-32v32h256v-32h-32v-16c0-5.617188-1.023438-10.984375-2.800781-16h34.800781c26.472656 0 48-21.527344 48-48v-80h-33.664062c-5.496094-26.910156-24.496094-48.945312-49.625-58.648438l71.875-91.472656-25.160157-19.765625-67.816406 86.320313c-7.042969-14.121094-18.113281-25.890625-31.730469-33.753906 5.121094-7.632813 8.121094-16.808594 8.121094-26.679688 0-26.472656-21.527344-48-48-48s-48 21.527344-48 48c0 9.871094 3 19.046875 8.128906 26.6875-19.914062 11.496094-34.441406 31.304688-38.785156 54.65625zm142.65625 206.65625v16h-128v-16c0-8.824219 7.175781-16 16-16h96c8.824219 0 16 7.175781 16 16zm80-64c0 8.824219-7.175781 16-16 16h-256c-8.824219 0-16-7.175781-16-16v-48h288zm-160-224c0-8.824219 7.175781-16 16-16s16 7.175781 16 16-7.175781 16-16 16-16-7.175781-16-16zm-32 96c0-26.472656 21.527344-48 48-48s48 21.527344 48 48v16h16c20.855469 0 38.59375 13.382812 45.199219 32h-218.398438c6.605469-18.617188 24.34375-32 45.199219-32h16zm0 0"/></svg>