<svg height="384pt" viewBox="0 -24 384 384" width="384pt" xmlns="http://www.w3.org/2000/svg"><path d="m352 224c0-71.503906-47.160156-132.183594-112-152.625v-23.375c0-26.472656-21.527344-48-48-48s-48 21.527344-48 48v23.375c-64.839844 20.441406-112 81.121094-112 152.625v16h-32v32h32v64h320v-64h32v-32h-32zm-176-176c0-8.824219 7.175781-16 16-16s16 7.175781 16 16v16.808594c-5.265625-.519532-10.601562-.808594-16-.808594s-10.734375.289062-16 .808594zm144 256h-256v-32h256zm-184-64v-16c0-30.878906 25.121094-56 56-56v-32c-48.519531 0-88 39.480469-88 88v16h-40v-16c0-70.574219 57.425781-128 128-128s128 57.425781 128 128v16zm0 0"/></svg>